<svg width="351" height="398" viewBox="0 0 351 398" fill="none" xmlns="http://www.w3.org/2000/svg">
<path d="M140.726 135.835L136.377 177.99V195.053L178.533 174.31L258.829 123.79L336.449 49.8507L350.5 16.0593H272.546L200.614 42.1556L157.789 89.9988L140.726 135.835Z" fill="#A9C069"/>
<path opacity="0.4" d="M336.114 49.8507L348.827 17.0631L273.215 16.7285L200.279 43.8285L158.793 90.3335L142.064 134.162V152.898L148.756 158.585L178.867 131.485L232.398 82.6384L240.762 64.5717L284.925 46.8396L336.114 49.8507Z" fill="url(#paint0_linear_455_820)"/>
<path d="M118.979 104.72L121.321 146.541L115.299 148.883L80.1691 126.467L22.6235 89.6641L-39.2716 37.1369L-56 0.334473H-23.2123L59.7605 19.7394L99.5741 54.5345L118.979 104.72Z" fill="#B7CE77"/>
<path opacity="0.3" d="M-18.8632 40.8172L-9.16068 62.5642L-38.2681 37.4716L-55.3311 1.00366H-22.878L59.4257 20.7432L98.2356 54.8691L118.979 104.72L117.306 115.76L98.2356 91.337L27.3072 47.8432L9.90968 32.453L-18.8632 27.4345V40.8172Z" fill="url(#paint1_linear_455_820)"/>
<path d="M-38.2679 36.4679L-12.1716 60.2222L-39.2716 37.137L-56 0.334568L-23.5469 0L59.7605 19.7395L99.5741 54.5346L118.979 105.054L97.5667 55.5383L58.4222 21.0778L-23.5469 1.67284H-53.9926L-38.2679 36.4679Z" fill="url(#paint2_linear_455_820)"/>
<path opacity="0.7" d="M22.2887 89.3296L115.968 149.552L96.2282 91.6716L45.7085 59.5531L16.9356 49.8506L2.88379 58.2148V72.6012L22.2887 89.3296Z" fill="url(#paint3_linear_455_820)"/>
<path d="M131.38 270.891L132.696 294.439L129.31 295.758L109.558 283.136L77.2023 262.414L42.4009 232.838L32.9951 212.116H51.4304L98.0831 223.042L120.469 242.634L131.38 270.891Z" fill="#ABC16E"/>
<path opacity="0.3" d="M54.1029 235.071L59.5407 247.245L43.2272 233.199L33.6641 212.785H51.8527L97.9807 223.835L119.732 242.937L131.358 270.842L130.42 277.022L119.732 263.351L79.9796 239.004L70.2289 230.389L54.1029 227.58V235.071Z" fill="url(#paint4_linear_455_820)"/>
<path d="M42.9631 232.557L57.6329 245.871L42.3988 232.932L32.9951 212.303L51.2383 212.116L98.0689 223.18L120.45 242.683L131.358 271L119.321 243.246L97.3166 223.93L51.2383 213.054H34.1236L42.9631 232.557Z" fill="url(#paint5_linear_455_820)"/>
<path opacity="0.7" d="M76.8061 262.476L130.02 296.427L118.807 263.797L90.1097 245.69L73.7653 240.22L65.7832 244.935V253.046L76.8061 262.476Z" fill="url(#paint6_linear_455_820)"/>
<path opacity="0.5" d="M135.373 182.674V195.388L178.532 174.31L259.163 123.121L329.088 56.8765L293.958 65.9098L247.453 96.3555L216.338 98.6975L190.577 121.448L135.373 182.674Z" fill="url(#paint7_linear_455_820)"/>
<path d="M138.084 232.999L136.711 246.237V251.595L150.016 245.081L175.36 229.217L199.859 205.999L204.294 195.388H179.689L156.986 203.582L143.469 218.606L138.084 232.999Z" fill="#A9C069"/>
<path opacity="0.4" d="M199.634 205.856L203.625 195.493L179.889 195.388L156.993 203.952L143.97 218.65L138.719 232.501V238.422L140.819 240.22L150.272 231.655L167.076 216.218L169.701 210.508L183.565 204.904L199.634 205.856Z" fill="url(#paint8_linear_455_820)"/>
<path opacity="0.5" d="M136.711 247.603V251.595L150.128 244.977L175.195 228.903L196.933 208.101L186.012 210.938L171.555 220.498L161.882 221.234L153.873 228.377L136.711 247.603Z" fill="url(#paint9_linear_455_820)"/>
<path d="M153.105 370.701L140.697 314.33L139.104 253.079V249.588L153.774 229.179L162.139 220.815L151.767 229.179L139.104 244.904V235.536L137.512 191.828L184.555 130.481L234.405 80.2962L181.209 127.47L134.421 177.321L98.5708 91.0024L24.9658 45.8357L95.5596 93.6789L130.078 191.828V289.401L118.979 263.974L90.5411 245.907L81.8424 242.896L90.5411 247.915L117.641 265.312L130.078 296.427V352.023L118.31 397.132L138.05 378.731L153.105 370.701Z" fill="#94AA54"/>
<path d="M98.5702 91.0024L124.332 153.232L97.5665 91.6715L25.2998 45.8357L98.5702 91.0024Z" fill="#DFF996"/>
<defs>
<linearGradient id="paint0_linear_455_820" x1="239.758" y1="23.7544" x2="255.483" y2="87.9915" gradientUnits="userSpaceOnUse">
<stop stop-color="#BDD677"/>
<stop offset="1" stop-color="#BDD677" stop-opacity="0"/>
</linearGradient>
<linearGradient id="paint1_linear_455_820" x1="-41.6138" y1="-43.4939" x2="36.006" y2="107.731" gradientUnits="userSpaceOnUse">
<stop stop-color="#DCF29E"/>
<stop offset="1" stop-color="#C7DD87" stop-opacity="0"/>
</linearGradient>
<linearGradient id="paint2_linear_455_820" x1="49.3889" y1="43.4938" x2="74.4815" y2="149.217" gradientUnits="userSpaceOnUse">
<stop stop-color="#F9FFE8"/>
<stop offset="1" stop-color="#F9FFE8" stop-opacity="0"/>
</linearGradient>
<linearGradient id="paint3_linear_455_820" x1="79.1653" y1="77.6197" x2="35.6714" y2="111.411" gradientUnits="userSpaceOnUse">
<stop stop-color="#A8BE69"/>
<stop offset="1" stop-color="#A8BE69" stop-opacity="0"/>
</linearGradient>
<linearGradient id="paint4_linear_455_820" x1="41.3521" y1="187.877" x2="84.7696" y2="272.571" gradientUnits="userSpaceOnUse">
<stop stop-color="#DCF29E"/>
<stop offset="1" stop-color="#C7DD87" stop-opacity="0"/>
</linearGradient>
<linearGradient id="paint5_linear_455_820" x1="92.2386" y1="236.495" x2="106.267" y2="295.772" gradientUnits="userSpaceOnUse">
<stop stop-color="#F9FFE8"/>
<stop offset="1" stop-color="#F9FFE8" stop-opacity="0"/>
</linearGradient>
<linearGradient id="paint6_linear_455_820" x1="109.115" y1="255.875" x2="84.5494" y2="275.105" gradientUnits="userSpaceOnUse">
<stop stop-color="#97AB5D"/>
<stop offset="1" stop-color="#A8BE69" stop-opacity="0"/>
</linearGradient>
<linearGradient id="paint7_linear_455_820" x1="199.61" y1="116.095" x2="223.364" y2="145.537" gradientUnits="userSpaceOnUse">
<stop stop-color="#9BB05F"/>
<stop offset="1" stop-color="#9BB05F" stop-opacity="0"/>
</linearGradient>
<linearGradient id="paint8_linear_455_820" x1="169.386" y1="197.608" x2="174.386" y2="217.894" gradientUnits="userSpaceOnUse">
<stop stop-color="#BDD677"/>
<stop offset="1" stop-color="#BDD677" stop-opacity="0"/>
</linearGradient>
<linearGradient id="paint9_linear_455_820" x1="156.681" y1="226.697" x2="164.156" y2="235.868" gradientUnits="userSpaceOnUse">
<stop stop-color="#9BB05F"/>
<stop offset="1" stop-color="#9BB05F" stop-opacity="0"/>
</linearGradient>
</defs>
</svg>
