<svg width="94" height="92" viewBox="0 0 94 92" fill="none" xmlns="http://www.w3.org/2000/svg">
<path d="M45.2494 31.2435L44.249 40.9398V44.8645L53.9453 40.0933L72.4145 28.4732L90.268 11.4662L93.5001 3.69373H75.5696L59.0243 9.6962L49.1741 20.7007L45.2494 31.2435Z" fill="#A9C069"/>
<path opacity="0.4" d="M90.1914 11.4662L93.1157 3.92461L75.7239 3.84766L58.9478 10.081L49.4054 20.7777L45.5576 30.8588V35.1683L47.0967 36.4765L54.0226 30.2432L66.3354 19.0078L68.2593 14.8522L78.4173 10.7736L90.1914 11.4662Z" fill="url(#paint0_linear_455_837)"/>
<path d="M40.2474 24.0868L40.786 33.7061L39.4009 34.2448L31.3206 29.0889L18.0844 20.6238L3.84774 8.54193L0 0.0769043H7.54157L26.6264 4.54028L35.784 12.5436L40.2474 24.0868Z" fill="#B7CE77"/>
<path opacity="0.3" d="M8.54237 9.38845L10.7741 14.3905L4.07899 8.61891L0.154297 0.230835H7.61891L26.5498 4.77117L35.4765 12.6206L40.2477 24.0868L39.863 26.6263L35.4765 21.0086L19.1621 11.0045L15.1605 7.46459L8.54237 6.31026V9.38845Z" fill="url(#paint1_linear_455_837)"/>
<path d="M4.0786 8.38807L10.0811 13.8519L3.84774 8.54198L0 0.0769548L7.46462 0L26.6264 4.54033L35.784 12.5436L40.2474 24.1638L35.3223 12.7745L26.3185 4.84815L7.46462 0.384774H0.461729L4.0786 8.38807Z" fill="url(#paint2_linear_455_837)"/>
<path opacity="0.7" d="M18.0083 20.547L39.5556 34.3988L35.0153 21.0857L23.3951 13.698L16.777 11.4663L13.5449 13.3902V16.6992L18.0083 20.547Z" fill="url(#paint3_linear_455_837)"/>
<path d="M43.0994 62.3085L43.4023 67.7248L42.6234 68.0281L38.0802 65.125L30.6379 60.3586L22.6332 53.5558L20.4697 48.7894H24.7101L35.4408 51.3026L40.5898 55.809L43.0994 62.3085Z" fill="#ABC16E"/>
<path opacity="0.3" d="M25.3252 54.0695L26.576 56.8695L22.8237 53.6387L20.624 48.9434H24.8076L35.4177 51.4849L40.4208 55.8787L43.0948 62.2971L42.8792 63.7187L40.4208 60.5741L31.2772 54.9741L29.0344 52.9926L25.3252 52.3464V54.0695Z" fill="url(#paint4_linear_455_837)"/>
<path d="M22.7625 53.491L26.1367 56.5535L22.6327 53.5773L20.4697 48.8326L24.6659 48.7894L35.4375 51.3343L40.5854 55.8203L43.0944 62.3335L40.3258 55.9497L35.2645 51.5069L24.6659 49.0051H20.7293L22.7625 53.491Z" fill="url(#paint5_linear_455_837)"/>
<path opacity="0.7" d="M30.5471 60.373L42.787 68.1821L40.2079 60.6767L33.6071 56.5118L29.8477 55.2537L28.0117 56.3383V58.2038L30.5471 60.373Z" fill="url(#paint6_linear_455_837)"/>
<path opacity="0.5" d="M44.0176 42.0173V44.9416L53.9447 40.0934L72.4909 28.3193L88.5744 13.0823L80.4941 15.1601L69.7974 22.1629L62.6406 22.7016L56.7151 27.9346L44.0176 42.0173Z" fill="url(#paint7_linear_455_837)"/>
<path d="M44.6419 53.5927L44.3262 56.6375V57.8699L47.3866 56.3717L53.2159 52.7227L58.8509 47.3822L59.871 44.9415H54.2117L48.9896 46.8264L45.8807 50.282L44.6419 53.5927Z" fill="#A9C069"/>
<path opacity="0.4" d="M58.7993 47.3493L59.7173 44.9658L54.2578 44.9415L48.9915 46.9115L45.996 50.2921L44.7881 53.4781V54.84L45.2712 55.2535L47.4454 53.2835L51.3106 49.7327L51.9145 48.4194L55.1033 47.1304L58.7993 47.3493Z" fill="url(#paint8_linear_455_837)"/>
<path opacity="0.5" d="M44.3262 56.9517V57.87L47.4123 56.3476L53.178 52.6504L58.178 47.8658L55.666 48.5183L52.3406 50.7173L50.1157 50.8864L48.2736 52.5296L44.3262 56.9517Z" fill="url(#paint9_linear_455_837)"/>
<path d="M48.0958 85.2658L45.2417 72.2998L44.8754 58.2112V57.4082L48.2497 52.714L50.1735 50.7901L47.7879 52.714L44.8754 56.3308V54.1761L44.509 44.1227L55.3295 30.0123L66.7958 18.4691L54.56 29.3197L43.798 40.786L35.5521 20.9316L18.6221 10.5427L34.8595 21.5473L42.7993 44.1227V66.5658L40.2464 60.7172L33.7052 56.5617L31.7044 55.8691L33.7052 57.0234L39.9385 61.0251L42.7993 68.1819V80.9696L40.0925 91.3453L44.6328 87.1127L48.0958 85.2658Z" fill="#94AA54"/>
<path d="M35.5533 20.9316L41.4788 35.2452L35.3224 21.0855L18.7002 10.5427L35.5533 20.9316Z" fill="#DFF996"/>
<defs>
<linearGradient id="paint0_linear_455_837" x1="68.0284" y1="5.46371" x2="71.6453" y2="20.239" gradientUnits="userSpaceOnUse">
<stop stop-color="#BDD677"/>
<stop offset="1" stop-color="#BDD677" stop-opacity="0"/>
</linearGradient>
<linearGradient id="paint1_linear_455_837" x1="3.30944" y1="-10.0042" x2="21.163" y2="24.7794" gradientUnits="userSpaceOnUse">
<stop stop-color="#DCF29E"/>
<stop offset="1" stop-color="#C7DD87" stop-opacity="0"/>
</linearGradient>
<linearGradient id="paint2_linear_455_837" x1="24.2408" y1="10.0041" x2="30.0124" y2="34.3218" gradientUnits="userSpaceOnUse">
<stop stop-color="#F9FFE8"/>
<stop offset="1" stop-color="#F9FFE8" stop-opacity="0"/>
</linearGradient>
<linearGradient id="paint3_linear_455_837" x1="31.0906" y1="17.8536" x2="21.0865" y2="25.626" gradientUnits="userSpaceOnUse">
<stop stop-color="#A8BE69"/>
<stop offset="1" stop-color="#A8BE69" stop-opacity="0"/>
</linearGradient>
<linearGradient id="paint4_linear_455_837" x1="22.3924" y1="43.2142" x2="32.3789" y2="62.6949" gradientUnits="userSpaceOnUse">
<stop stop-color="#DCF29E"/>
<stop offset="1" stop-color="#C7DD87" stop-opacity="0"/>
</linearGradient>
<linearGradient id="paint5_linear_455_837" x1="34.0965" y1="54.3968" x2="37.3231" y2="68.0314" gradientUnits="userSpaceOnUse">
<stop stop-color="#F9FFE8"/>
<stop offset="1" stop-color="#F9FFE8" stop-opacity="0"/>
</linearGradient>
<linearGradient id="paint6_linear_455_837" x1="37.9785" y1="58.8545" x2="32.3282" y2="63.2778" gradientUnits="userSpaceOnUse">
<stop stop-color="#97AB5D"/>
<stop offset="1" stop-color="#A8BE69" stop-opacity="0"/>
</linearGradient>
<linearGradient id="paint7_linear_455_837" x1="58.7929" y1="26.7033" x2="64.2567" y2="33.4753" gradientUnits="userSpaceOnUse">
<stop stop-color="#9BB05F"/>
<stop offset="1" stop-color="#9BB05F" stop-opacity="0"/>
</linearGradient>
<linearGradient id="paint8_linear_455_837" x1="51.842" y1="45.4523" x2="52.9919" y2="50.1182" gradientUnits="userSpaceOnUse">
<stop stop-color="#BDD677"/>
<stop offset="1" stop-color="#BDD677" stop-opacity="0"/>
</linearGradient>
<linearGradient id="paint9_linear_455_837" x1="48.9195" y1="52.143" x2="50.6388" y2="54.2526" gradientUnits="userSpaceOnUse">
<stop stop-color="#9BB05F"/>
<stop offset="1" stop-color="#9BB05F" stop-opacity="0"/>
</linearGradient>
</defs>
</svg>
