<svg width="65" height="93" viewBox="0 0 65 93" fill="none" xmlns="http://www.w3.org/2000/svg">
<path d="M25.3095 3.15407L22.4631 7.00049L11.4623 15.4626L1.38471 33.9254L0 53.8499L6.69277 72.2358L22.4631 85.9291L25.3095 89.4678L32.3869 92.468L38.9258 89.4678L41.3106 85.9291L57.5425 72.2358L64.3891 53.8499L62.4659 33.9254L52.4652 15.4626L41.3106 7.00049L38.9258 3.15407L32.3869 0L25.3095 3.15407Z" fill="#FED03D"/>
<path d="M52.4653 15.4631L41.2338 7.00094L38.9259 3.23145L39.8491 7.6933L46.9265 22.8482L48.1574 40.311L40.6953 66.3897L32.3101 76.2365L21.5401 76.9289L6.53906 72.3901L22.4633 85.9295L25.2327 89.4682L32.3101 92.5454L38.9259 89.4682L41.2338 85.9295L57.3888 72.3901L64.3893 53.6196L62.466 34.0028L52.4653 15.4631Z" fill="url(#paint0_linear_455_815)"/>
<path d="M25.2325 3.23099L32.4638 0L25.2325 3.84642L23.1555 7.46206L12.2316 15.4626L2.30785 34.0024L1.30778 53.773L7.76977 72.3127L11.2316 76.1592L6.7697 72.3127L0 53.773L1.30778 34.0024L11.4623 15.4626L22.4631 7.00049L25.2325 3.23099Z" fill="white"/>
<path d="M25.6172 7.3855L22.1554 8.07785L12.2316 15.3861L2.00017 33.8489L0.692383 53.5426L4.23109 63.6971L7.69287 62.0816L9.9238 53.5426L14.8472 39.5416L25.6172 33.8489L33.4639 23.5405L32.5408 13.0782L25.6172 7.3855Z" fill="url(#paint1_linear_455_815)"/>
<defs>
<linearGradient id="paint0_linear_455_815" x1="69.9281" y1="66.0051" x2="30.7715" y2="41.5418" gradientUnits="userSpaceOnUse">
<stop stop-color="#FEBC3D"/>
<stop offset="1" stop-color="#FE9A3D" stop-opacity="0"/>
</linearGradient>
<linearGradient id="paint1_linear_455_815" x1="2.15402" y1="17.0785" x2="31.156" y2="43.4649" gradientUnits="userSpaceOnUse">
<stop stop-color="#FFE79C"/>
<stop offset="1" stop-color="#FFDD71" stop-opacity="0"/>
</linearGradient>
</defs>
</svg>
