<svg width="224" height="352" viewBox="0 0 224 352" fill="none" xmlns="http://www.w3.org/2000/svg">
<path d="M122.466 204.748L70.0153 210.965L62.2449 210.965L57.5826 206.302L22.6157 146.082L36.6025 119.274L42.0418 87.0263L55.64 61.3839L80.1169 81.1985L84.7792 93.2427L95.2692 146.082L157.821 136.369L199.393 140.642L223.093 149.19L164.426 195.424L122.466 204.748Z" fill="#F8F8F8"/>
<path d="M112.365 149.192L157.822 136.371L110.422 144.141L81.6716 85.863L80.8946 91.6908L54.0866 97.5187L42.0425 87.0286L36.6032 119.276L28.0557 135.982L28.0557 142.199L63.7997 209.801L70.793 211.355L120.912 205.139L164.038 195.815L222.316 149.192L175.694 171.726L129.46 184.547L115.084 175.611L112.365 149.192Z" fill="url(#paint0_linear_455_908)"/>
<path d="M71.177 89.7488L10.1792 163.179L10.1792 184.16L35.8216 215.241L62.241 210.968L113.526 184.16L117.023 163.179L139.945 144.919L117.023 148.027L136.449 128.601L127.124 128.601L127.124 114.226L130.232 107.232L121.296 107.232L121.296 93.2455L109.252 101.016L97.985 82.3669L83.2212 93.2455L71.177 89.7488Z" fill="white"/>
<path d="M92.9349 233.114L70.0121 210.579L54.0827 210.579L25.7207 201.643L42.0386 252.54L59.522 301.493L77.394 332.575L77.394 352.001L92.9349 345.396L104.979 324.416L108.864 280.125L92.9349 233.114Z" fill="#F8F8F8"/>
<path d="M-5.3592 153.855L8.62757 161.626L19.1176 176.001L25.334 201.255L-11.9641 214.465L-67.1341 219.904L-91.9995 231.56L-91.9995 207.86L-72.1849 179.498L-39.9376 158.518L-5.3592 153.855Z" fill="#F8F8F8"/>
<path d="M-2.24218 142.199L1.25451 157.351L1.25451 165.899L13.6872 165.899L28.0625 142.199L25.3428 95.9648L1.25452 35.744L-27.8846 -4.89105e-06L-31.7698 63.329L-23.2223 91.3025L-2.24218 142.199Z" fill="#F8F8F8"/>
<path d="M93.3223 111.504L83.6092 127.822L85.1633 129.376L96.0419 129.376L92.5452 146.082L96.0419 149.579L99.9271 144.917L110.806 142.197L118.576 129.376L108.086 111.504L93.3223 111.504Z" fill="#FFF37B"/>
<path d="M91.7682 117.72L97.2075 111.504L92.9338 111.504L83.6092 127.822L85.1633 129.764L96.1714 129.764L92.5452 146.082L96.0419 149.579L99.9271 144.917L110.806 142.197L118.576 128.987L113.914 121.217L115.468 128.987L108.086 135.981L101.87 135.204L98.3731 132.095L93.7108 126.268L91.7682 117.72Z" fill="#F7E481"/>
<path d="M18.7332 97.1295L1.24979 35.7432L25.3381 96.3525L28.4463 141.81L13.6825 165.898L11.7399 165.898L1.24978 157.739L-2.63543 141.809L-24.0041 90.1362L-31.7745 63.3282L-10.4059 108.397L7.85465 132.096L16.4021 126.657L18.7332 97.1295Z" fill="url(#paint1_linear_455_908)"/>
<path d="M-9.63295 160.072L-40.3261 158.518L-5.35921 153.855L1.63418 157.741L11.3472 165.511L19.1176 176.39L25.334 201.644L-11.5756 214.465L-67.1341 219.904L-76.0701 224.566L-65.9686 216.407L-18.5689 206.694L1.63417 188.045L3.57678 174.836L-9.63295 160.072Z" fill="url(#paint2_linear_455_908)"/>
<path d="M70.4047 210.579L64.5769 209.802L53.6983 210.579L24.5592 201.643L41.6541 251.763L59.1376 301.105L77.3981 332.575L77.3981 352.001L92.9389 345.785L82.0603 343.842L80.1177 328.301L61.8572 297.22L48.6475 257.202L50.5901 234.668L66.5195 231.559L80.1177 234.668L95.2701 257.202L109.257 282.067L93.3275 233.114L70.4047 210.579Z" fill="url(#paint3_linear_455_908)"/>
<path d="M11.346 165.509L27.6639 142.197L49.8096 115.389L71.5668 89.7471L83.611 92.8552L89.8273 88.193L68.0701 110.727L80.1143 112.281L89.8273 106.065L93.324 110.727L83.611 127.822L85.1651 129.765L96.4322 129.765L92.547 146.083L96.4322 149.579L99.9289 144.917L110.807 142.197L107.311 153.076L120.521 153.076L116.635 163.566L113.527 184.158L64.5734 209.8L53.6948 210.577L24.5557 202.03L19.1164 176.387L11.346 165.509Z" fill="url(#paint4_linear_455_908)"/>
<path d="M115.079 161.623L128.289 154.241L117.41 162.789L113.525 184.546L64.183 210.188L111.194 183.38L115.079 161.623Z" fill="white"/>
<path d="M111.976 118.109L108.091 111.504L99.1547 111.504L98.3776 115.389L98.7662 120.051L105.76 125.102L112.753 124.325L111.976 118.109Z" fill="#FFF8B3"/>
<defs>
<linearGradient id="paint0_linear_455_908" x1="112.365" y1="222.623" x2="200.171" y2="160.459" gradientUnits="userSpaceOnUse">
<stop stop-color="#E2E1DD"/>
<stop offset="1" stop-color="#ECEBE9" stop-opacity="0"/>
</linearGradient>
<linearGradient id="paint1_linear_455_908" x1="-1.46988" y1="271.964" x2="8.6317" y2="40.7939" gradientUnits="userSpaceOnUse">
<stop stop-color="#E2E1DD"/>
<stop offset="1" stop-color="#D9D3C0" stop-opacity="0"/>
</linearGradient>
<linearGradient id="paint2_linear_455_908" x1="21.4488" y1="205.14" x2="-47.708" y2="172.893" gradientUnits="userSpaceOnUse">
<stop stop-color="#E2E1DD"/>
<stop offset="1" stop-color="#F2F0EC" stop-opacity="0"/>
</linearGradient>
<linearGradient id="paint3_linear_455_908" x1="52.5327" y1="202.032" x2="82.0603" y2="308.875" gradientUnits="userSpaceOnUse">
<stop stop-color="#E2E1DD"/>
<stop offset="1" stop-color="#F1F0ED" stop-opacity="0"/>
</linearGradient>
<linearGradient id="paint4_linear_455_908" x1="37.7654" y1="198.145" x2="135.284" y2="135.981" gradientUnits="userSpaceOnUse">
<stop stop-color="#DBDBDB"/>
<stop offset="1" stop-color="#F2F1EF" stop-opacity="0"/>
</linearGradient>
</defs>
</svg>
