<svg width="406" height="576" viewBox="0 0 406 576" fill="none" xmlns="http://www.w3.org/2000/svg">
<g filter="url(#filter0_f_455_171)">
<path d="M53.2606 397.581L33.6881 427.49L37.1332 431.787L72.6226 430.188L130.793 427.509L198.883 415.062L226.931 394.991L202.734 381.021L133.222 360.01L88.994 368.761L53.2606 397.581Z" fill="#ABC16E"/>
<path opacity="0.3" d="M181.83 409.124L165.469 420.981L197.524 414.908L225.545 395.361L201.672 381.578L132.755 361.126L89.7305 369.715L53.3258 397.531L49.8731 406.353L74.2615 396.509L144.887 394.677L164.213 390.759L187.507 399.292L181.83 409.124Z" fill="url(#paint0_linear_455_171)"/>
<path d="M198.358 414.266L169.014 420.625L198.814 415.186L226.789 395.237L202.986 381.167L133.136 360.201L88.9818 368.84L53.2065 397.74L90.0366 370.433L133.555 361.756L202.276 382.398L224.739 395.367L198.358 414.266Z" fill="url(#paint1_linear_455_171)"/>
<path opacity="0.7" d="M131.265 427.89L35.6936 432.126L75.1375 397.795L126.525 395.776L152.122 400.982L159.025 413.22L152.879 423.865L131.265 427.89Z" fill="url(#paint2_linear_455_171)"/>
<path d="M59.394 243.977L66.6797 314.592V343.174L-3.93533 308.427L-138.44 223.801L-268.461 99.9443L-292 43.3401H-161.418L-40.9241 87.0542L30.8117 167.197L59.394 243.977Z" fill="#A9C069"/>
<path opacity="0.4" d="M-267.899 99.9451L-289.196 45.0223L-162.537 44.4619L-40.3617 89.8572L29.1325 167.758L57.1543 241.175V272.56L45.9456 282.087L-4.49374 236.692L-94.1636 154.868L-108.175 124.604L-182.152 94.9012L-267.899 99.9451Z" fill="url(#paint3_linear_455_171)"/>
<path d="M95.8223 191.856L91.8992 261.911L101.987 265.834L160.833 228.285L257.228 166.637L360.909 78.648L388.931 17H334.008L195.02 49.5053L128.328 107.791L95.8223 191.856Z" fill="#B7CE77"/>
<path opacity="0.3" d="M326.718 84.8121L310.465 121.241L359.223 79.2078L387.806 18.1202H333.443L195.576 51.1859L130.565 108.35L95.8182 191.856L98.6203 210.35L130.565 169.438L249.378 96.5813L278.521 70.8012L326.718 62.3947V84.8121Z" fill="url(#paint4_linear_455_171)"/>
<path opacity="0.7" d="M257.783 166.076L100.86 266.954L133.926 169.999L218.552 116.197L266.75 99.9441L290.288 113.955V138.054L257.783 166.076Z" fill="url(#paint5_linear_455_171)"/>
<path opacity="0.5" d="M68.3623 322.438V343.734L-3.93404 308.427L-138.999 222.68L-256.131 111.714L-197.285 126.845L-119.384 177.845L-67.2634 181.768L-24.1098 219.878L68.3623 322.438Z" fill="url(#paint6_linear_455_171)"/>
<path d="M-4.06836 528.44L64.7826 337.772L-14.0197 235.01L-97.5248 150.945L-8.41534 229.967L69.9601 313.472L130.013 168.879L253.309 93.22L135.056 173.362L77.234 337.772L19.4316 528.44L-4.06836 558.44L-22.5684 551.94L-4.06836 528.44Z" fill="#94AA54"/>
<path d="M130.007 168.879L86.8529 273.12L131.688 170L252.742 93.22L130.007 168.879Z" fill="#DFF996"/>
<path d="M110.711 318.811L109.386 334.861L123.08 324.701L138.689 316.897H155.917L165.931 318.811V323.523L154.15 339.132L143.548 347.378L120.871 354.741L125.731 357.98L137.658 366.963L145.757 377.565L152.825 390.376V398.033L142.37 399.8L130.295 392.732L119.104 383.16L107.03 369.319V375.945L103.937 385.958L97.7526 395.088L86.2669 405.837H79.9351L75.5175 392.732V380.363L79.9351 369.319L87.4449 360.631H73.7504L52.3988 357.98L34.8757 348.998L31.9307 342.519L38.1153 334.861L52.3988 330.297H68.8911L86.2669 334.861L91.7153 341.341L83.7636 306.442L86.2669 290.833L91.7153 282.439L99.9614 285.532L107.03 297.459L110.711 318.811Z" fill="#F8F8F8"/>
<path d="M104.967 315.867L110.71 319.253L109.385 334.862L121.901 325.733H126.466L133.682 328.825L141.339 334.126L144.726 341.636L143.548 347.526L120.871 354.889L126.466 358.423L133.682 364.018L135.154 366.522V374.179L133.093 380.952L127.644 382.572L118.662 383.014L107.029 369.614V375.946L104.378 384.192H99.9608L89.5058 382.572L83.9102 378.744L79.7871 369.614L87.4443 360.631H73.6025L63.2948 356.656L58.73 350.177L59.1717 341.341L63.7366 334.568L68.8904 330.297L86.2662 334.862L88.7695 337.807L90.2421 336.188L87.5915 322.788L90.2421 317.045L95.3959 313.658L104.967 315.867Z" fill="url(#paint7_radial_455_171)"/>
<path opacity="0.8" d="M119.987 350.028L117.042 354.299L118.368 355.771L114.392 359.6L114.686 361.22L109.974 361.661L107.913 364.754L102.022 366.079L96.1324 363.87L89.6532 360.189L86.5609 353.415L82.8796 351.943L81.5543 348.85L86.5609 348.114L89.6532 345.169L86.5609 340.457L89.6532 336.481L91.273 332.064L95.1016 335.303L99.5192 333.683L102.022 329.56L104.231 334.272H107.913L109.974 337.365H114.392L118.368 341.635L114.392 347.231L119.987 350.028Z" fill="white"/>
<path d="M110.709 345.757L113.212 350.763L112.623 351.794V353.414L111.003 355.034H109.383V356.801L108.205 357.832L106.438 356.359L104.082 357.39V360.04L102.315 362.102L100.695 362.544L98.9284 359.157L101.284 357.832L100.695 355.034L98.6339 355.623L96.1306 355.034L95.6888 357.39L93.3328 359.451L92.7438 355.034L90.9767 351.794L89.357 349.585L90.9767 347.671L93.3328 345.315L92.302 341.928L94.9526 339.13L98.6339 340.014L103.051 339.13L107.616 341.339L110.709 345.757Z" fill="#F7E194"/>
<path d="M105.412 349.44L106.001 351.06L103.498 354.152H99.6692L97.4604 352.091L94.3681 348.851L93.7791 343.697L96.1351 341.341L98.3439 340.311H101.583L105.118 342.372L106.737 345.317L105.412 349.44Z" fill="#FFF37B"/>
<path d="M103.155 348.204L103.503 349.135L102.024 350.911H99.7619L98.4567 349.727L96.6294 347.866L96.2813 344.905L97.6735 343.552L98.9787 342.959H100.893L102.981 344.144L103.938 345.836L103.155 348.204Z" fill="#FFF8AE"/>
<path d="M106.438 297.754L99.9586 285.532L107.174 297.754L110.708 318.959L109.088 336.482L109.972 318.959L106.438 297.754Z" fill="white"/>
</g>
<defs>
<filter id="filter0_f_455_171" x="-309" y="0" width="714.931" height="575.44" filterUnits="userSpaceOnUse" color-interpolation-filters="sRGB">
<feFlood flood-opacity="0" result="BackgroundImageFix"/>
<feBlend mode="normal" in="SourceGraphic" in2="BackgroundImageFix" result="shape"/>
<feGaussianBlur stdDeviation="8.5" result="effect1_foregroundBlur_455_171"/>
</filter>
<linearGradient id="paint0_linear_455_171" x1="234.329" y1="356.843" x2="113.163" y2="435.104" gradientUnits="userSpaceOnUse">
<stop stop-color="#DCF29E"/>
<stop offset="1" stop-color="#C7DD87" stop-opacity="0"/>
</linearGradient>
<linearGradient id="paint1_linear_455_171" x1="130.699" y1="382.095" x2="67.3675" y2="449.267" gradientUnits="userSpaceOnUse">
<stop stop-color="#F9FFE8"/>
<stop offset="1" stop-color="#F9FFE8" stop-opacity="0"/>
</linearGradient>
<linearGradient id="paint2_linear_455_171" x1="93.8622" y1="394.742" x2="111.532" y2="438.598" gradientUnits="userSpaceOnUse">
<stop stop-color="#97AB5D"/>
<stop offset="1" stop-color="#A8BE69" stop-opacity="0"/>
</linearGradient>
<linearGradient id="paint3_linear_455_171" x1="-106.493" y1="56.231" x2="-132.834" y2="163.835" gradientUnits="userSpaceOnUse">
<stop stop-color="#BDD677"/>
<stop offset="1" stop-color="#BDD677" stop-opacity="0"/>
</linearGradient>
<linearGradient id="paint4_linear_455_171" x1="364.828" y1="-56.4179" x2="234.806" y2="196.899" gradientUnits="userSpaceOnUse">
<stop stop-color="#DCF29E"/>
<stop offset="1" stop-color="#C7DD87" stop-opacity="0"/>
</linearGradient>
<linearGradient id="paint5_linear_455_171" x1="162.509" y1="146.46" x2="235.365" y2="203.064" gradientUnits="userSpaceOnUse">
<stop stop-color="#A8BE69"/>
<stop offset="1" stop-color="#A8BE69" stop-opacity="0"/>
</linearGradient>
<linearGradient id="paint6_linear_455_171" x1="-39.2415" y1="210.911" x2="-79.0325" y2="260.229" gradientUnits="userSpaceOnUse">
<stop stop-color="#9BB05F"/>
<stop offset="1" stop-color="#9BB05F" stop-opacity="0"/>
</linearGradient>
<radialGradient id="paint7_radial_455_171" cx="0" cy="0" r="1" gradientUnits="userSpaceOnUse" gradientTransform="translate(101.728 348.925) rotate(90.1698) scale(49.698 60.5922)">
<stop stop-color="#CECECE"/>
<stop offset="1" stop-color="#F3F2F1" stop-opacity="0"/>
</radialGradient>
</defs>
</svg>
