<svg width="48" height="69" viewBox="0 0 48 69" fill="none" xmlns="http://www.w3.org/2000/svg">
<path d="M18.6355 2.32236L16.5398 5.15451L8.43981 11.3852L1.01957 24.9796L0 39.6501L4.92794 53.1878L16.5398 63.2702L18.6355 65.8758L23.8467 68.0849L28.6614 65.8758L30.4173 63.2702L42.369 53.1878L47.4102 39.6501L45.9941 24.9796L38.6305 11.3852L30.4173 5.15451L28.6614 2.32236L23.8467 0L18.6355 2.32236Z" fill="#FED03D"/>
<path d="M38.6303 11.3854L30.3604 5.15466L28.6612 2.37915L29.3409 5.66444L34.552 16.8231L35.4583 29.6811L29.9639 48.883L23.7899 56.1333L15.8598 56.6431L4.81445 53.3012L16.5396 63.2704L18.5787 65.8759L23.7899 68.1417L28.6612 65.8759L30.3604 63.2704L42.2555 53.3012L47.41 39.4803L45.9939 25.0363L38.6303 11.3854Z" fill="url(#paint0_linear_455_968)"/>
<path d="M18.5789 2.37901L23.9033 0L18.5789 2.83215L17.0495 5.49437L9.00624 11.3852L1.69929 25.0362L0.962931 39.5934L5.72094 53.2444L8.26988 56.0765L4.98458 53.2444L0 39.5934L0.962931 25.0362L8.43981 11.3852L16.5398 5.15451L18.5789 2.37901Z" fill="white"/>
<path d="M18.8621 5.43799L16.3132 5.94778L9.00621 11.3289L1.4727 24.9232L0.509766 39.4238L3.11534 46.9007L5.66428 45.7112L7.30692 39.4238L10.9321 29.1148L18.8621 24.9232L24.6397 17.333L23.96 9.62957L18.8621 5.43799Z" fill="url(#paint1_linear_455_968)"/>
<defs>
<linearGradient id="paint0_linear_455_968" x1="51.4883" y1="48.5998" x2="22.657" y2="30.5874" gradientUnits="userSpaceOnUse">
<stop stop-color="#FEBC3D"/>
<stop offset="1" stop-color="#FE9A3D" stop-opacity="0"/>
</linearGradient>
<linearGradient id="paint1_linear_455_968" x1="1.58598" y1="12.575" x2="22.9404" y2="32.0036" gradientUnits="userSpaceOnUse">
<stop stop-color="#FFE79C"/>
<stop offset="1" stop-color="#FFDD71" stop-opacity="0"/>
</linearGradient>
</defs>
</svg>
